<svg xmlns="http://www.w3.org/2000/svg" viewBox="0 0 16 16"><path d="M13.68 2.3A8.079 8.079 0 008.03 0C1.918 0-1.922 6.625 1.13 11.89L0 16l4.223-1.102c1.84.997 3.347.907 3.812.965 7.086 0 10.617-8.574 5.637-13.539zm0 0" fill="#eceff1"/><path d="M8.043 14.5h-.012c-2.12 0-3.476-1.004-3.61-1.063l-2.5.649.669-2.43-.16-.25a6.566 6.566 0 01-1.008-3.504c0-5.863 7.16-8.797 11.308-4.652 4.133 4.102 1.23 11.25-4.687 11.25zm0 0" fill="#4caf50"/><path d="M11.672 9.54l-.008.05c-.2-.102-1.176-.578-1.36-.645-.406-.152-.292-.023-1.077.875-.118.13-.23.137-.43.047-.2-.097-.844-.308-1.602-.988-.593-.531-.988-1.18-1.105-1.379-.195-.34.21-.387.582-1.09.066-.14.035-.25-.016-.351-.05-.098-.449-1.079-.613-1.47-.16-.39-.324-.339-.45-.339-.382-.035-.663-.027-.91.23-1.078 1.18-.804 2.403.114 3.7 1.808 2.367 2.773 2.804 4.539 3.41.473.148.906.129 1.25.078.383-.059 1.18-.48 1.344-.95.172-.472.172-.859.12-.948-.046-.09-.179-.141-.378-.23zm0 0" fill="#fafafa"/></svg>