<?xml version="1.0" encoding="UTF-8"?>
<svg xmlns="http://www.w3.org/2000/svg" xmlns:xlink="http://www.w3.org/1999/xlink" width="16pt" height="16pt" viewBox="0 0 16 16" version="1.1">
<g id="surface1">
<path style=" stroke:none;fill-rule:nonzero;fill:rgb(0%,0%,0%);fill-opacity:1;" d="M 1.46875 9.4375 L 0.46875 9.4375 C 0.210938 9.4375 0 9.648438 0 9.90625 L 0 15.53125 C 0 15.789062 0.210938 16 0.46875 16 L 1.46875 16 C 2.246094 16 2.875 15.371094 2.875 14.59375 L 2.875 10.84375 C 2.875 10.066406 2.246094 9.4375 1.46875 9.4375 Z M 1.46875 9.4375 "/>
<path style=" stroke:none;fill-rule:nonzero;fill:rgb(0%,0%,0%);fill-opacity:1;" d="M 15.859375 10.347656 C 15.804688 10.253906 15.730469 10.179688 15.644531 10.113281 C 15.300781 9.808594 14.71875 9.839844 14.378906 10.207031 L 12.25 12.664062 L 12.1875 12.738281 C 11.921875 13.027344 11.546875 13.1875 11.15625 13.1875 L 7.515625 13.1875 C 7.253906 13.1875 7.046875 12.980469 7.046875 12.71875 C 7.046875 12.457031 7.253906 12.25 7.515625 12.25 L 10.375 12.25 C 10.890625 12.25 11.3125 11.828125 11.3125 11.3125 L 11.3125 11.304688 C 11.304688 10.789062 10.890625 10.375 10.375 10.375 L 8.679688 10.375 C 8.398438 10.375 8.097656 10.273438 7.855469 10.066406 C 6.710938 9.0625 5.042969 8.996094 3.8125 9.851562 L 3.8125 15.617188 C 4.742188 15.867188 5.699219 16 6.664062 16 L 10.84375 16 C 11.875 16 12.851562 15.511719 13.46875 14.6875 L 15.71875 11.6875 C 16.046875 11.257812 16.074219 10.664062 15.859375 10.347656 Z M 15.859375 10.347656 "/>
<path style=" stroke:none;fill-rule:nonzero;fill:rgb(0%,0%,0%);fill-opacity:1;" d="M 12.570312 0.90625 C 12.050781 0.320312 11.332031 0 10.542969 0 C 9.660156 0 8.898438 0.417969 8.335938 1.203125 C 8.292969 1.261719 8.253906 1.320312 8.214844 1.378906 C 8.179688 1.320312 8.140625 1.261719 8.097656 1.203125 C 7.535156 0.417969 6.769531 0 5.890625 0 C 5.101562 0 4.378906 0.320312 3.859375 0.90625 C 3.367188 1.460938 3.09375 2.203125 3.09375 2.992188 C 3.09375 3.855469 3.429688 4.648438 4.144531 5.492188 C 4.769531 6.226562 5.667969 6.984375 6.707031 7.859375 C 7.089844 8.183594 7.488281 8.519531 7.910156 8.886719 C 7.996094 8.960938 8.105469 9 8.214844 9 C 8.324219 9 8.433594 8.960938 8.523438 8.886719 C 8.945312 8.519531 9.339844 8.183594 9.726562 7.863281 C 10.390625 7.296875 10.96875 6.8125 11.46875 6.339844 C 12.4375 5.425781 13.335938 4.386719 13.335938 2.992188 C 13.335938 2.203125 13.0625 1.460938 12.570312 0.90625 Z M 12.570312 0.90625 "/>
</g>
</svg>
