<svg xmlns="http://www.w3.org/2000/svg" viewBox="0 0 16 16"><path d="M1.469 9.438h-1A.47.47 0 000 9.905v5.625c0 .258.21.469.469.469h1c.777 0 1.406-.629 1.406-1.406v-3.75c0-.778-.629-1.406-1.406-1.406zm0 0M15.86 10.348a.82.82 0 00-.215-.235c-.344-.304-.926-.273-1.266.094l-2.129 2.457-.063.074c-.265.29-.64.45-1.03.45H7.515a.465.465 0 01-.47-.47c0-.261.208-.468.47-.468h2.859a.94.94 0 00.938-.938v-.007a.939.939 0 00-.938-.93H8.68c-.282 0-.582-.102-.825-.309a3.284 3.284 0 00-4.043-.214v5.765c.93.25 1.887.383 2.852.383h4.18a3.286 3.286 0 002.625-1.313l2.25-3c.328-.43.355-1.023.14-1.34zm0 0M12.57.906A2.67 2.67 0 0010.543 0C9.66 0 8.898.418 8.336 1.203a4.72 4.72 0 00-.121.176 2.29 2.29 0 00-.117-.176C7.535.418 6.77 0 5.89 0 5.1 0 4.379.32 3.859.906a3.133 3.133 0 00-.765 2.086c0 .863.336 1.656 1.05 2.5.626.735 1.524 1.492 2.563 2.367.383.325.781.66 1.203 1.028a.468.468 0 00.613 0c.422-.367.817-.703 1.204-1.024.664-.566 1.242-1.05 1.742-1.523.969-.914 1.867-1.953 1.867-3.348 0-.789-.274-1.531-.766-2.086zm0 0"/></svg>